<?xml version="1.0" encoding="UTF-8"?>
<svg id="Layer_2" data-name="Layer 2" xmlns="http://www.w3.org/2000/svg" viewBox="0 0 298.92 388.48">
  <defs>
    <style>
      .cls-1 {
        fill: #2cdbbe;
      }

      .cls-1, .cls-2 {
        stroke-width: 0px;
      }

      .cls-2 {
        fill: #8affe0;
      }
    </style>
  </defs>
  <g id="Layer_1-2" data-name="Layer 1">
    <g>
      <path class="cls-1" d="M234.78,111.1H87.92c-9.25,0-17.1,7.57-16.93,16.82.17,8.97,7.49,16.18,16.5,16.18h99.3c13.05,0,23.4,10.05,24.52,22.37h17.99c11.05,0,20,8.95,20,20s-8.95,20-20,20h-22.9c-.81,10.47-2.45,22.01-9.65,25.54-2.3,1.13-4.96,1.17-7.52,1.19-28.78.16-57.52-1.44-86.3-1.46-9.29,0-17.16,7.56-16.97,16.84.18,8.95,7.5,16.16,16.5,16.16h70.8c10.07,0,17.6,9.24,15.57,19.1-.01.06-.03.13-.04.19-3.16,15.39-5.98,30.89-9.5,46.2-.6,2.63-1.3,5.23-2.01,7.83h22.07c13.81,0,25,11.19,25,25,0,11.96-8.4,21.95-19.61,24.41,15.65.98,36.77,3.54,42.03-6.76,14.12-27.62,32.64-221.47,34.61-245.88,1.57-19.39-18.63-24.48-46.61-23.74Z"/>
      <path class="cls-2" d="M224.35,363.06c0-13.81-11.19-25-25-25h-47.27c-13.81,0-25,11.19-25,25s11.19,25,25,25h47.27c1.85,0,3.65-.21,5.39-.59,11.22-2.46,19.61-12.45,19.61-24.41Z"/>
      <path class="cls-2" d="M155.26,304.64c0-8.28-6.72-15-15-15H15c-8.28,0-15,6.72-15,15s6.72,15,15,15h125.26c8.28,0,15-6.72,15-15Z"/>
      <path class="cls-2" d="M100.64,206.47h2.51c11.05,0,20-8.95,20-20s-8.95-20-20-20h-2.51c-11.05,0-20,8.95-20,20s8.95,20,20,20Z"/>
      <path class="cls-1" d="M246.36,93.39h5.87c25.79,0,46.7-20.91,46.7-46.7S278.01,0,252.22,0h-5.87c-25.79,0-46.7,20.91-46.7,46.7s20.91,46.7,46.7,46.7Z"/>
      <path class="cls-1" d="M43.35,268.92h2.51c11.05,0,20-8.95,20-20s-8.95-20-20-20h-2.51c-11.05,0-20,8.95-20,20s8.95,20,20,20Z"/>
      <path class="cls-2" d="M249.29,186.47c0-11.05-8.95-20-20-20h-77.21c-11.05,0-20,8.95-20,20s8.95,20,20,20h77.21c11.05,0,20-8.95,20-20Z"/>
    </g>
  </g>
</svg>